<?xml version="1.0" standalone="no"?>
<!DOCTYPE svg PUBLIC "-//W3C//DTD SVG 20010904//EN"
 "http://www.w3.org/TR/2001/REC-SVG-20010904/DTD/svg10.dtd">
<svg version="1.0" xmlns="http://www.w3.org/2000/svg"
 width="432.000000pt" height="432.000000pt" viewBox="0 0 432.000000 432.000000"
 preserveAspectRatio="xMidYMid meet">
<metadata>
Created by potrace 1.11, written by Peter Selinger 2001-2013
</metadata>
<g transform="translate(0.000000,432.000000) scale(0.100000,-0.100000)"
fill="#000000" stroke="none">
<path d="M833 2827 c6 -15 3 -17 -14 -12 -15 5 -19 4 -15 -4 4 -6 3 -11 -2
-11 -5 0 -12 -12 -15 -27 -3 -16 -15 -38 -27 -50 -11 -13 -16 -23 -10 -23 6 0
9 -4 5 -10 -3 -5 -11 -8 -18 -6 -7 1 -9 1 -4 -1 11 -7 8 -33 -4 -33 -5 0 -7
-4 -4 -10 3 -5 -2 -10 -12 -11 -10 0 -13 -3 -6 -5 14 -6 -4 -54 -20 -54 -5 0
-7 -6 -4 -12 6 -17 -28 -80 -38 -70 -4 4 -5 -2 -1 -14 4 -13 -1 -27 -13 -41
-11 -11 -17 -23 -15 -26 8 -7 -25 -67 -36 -67 -5 0 -6 -7 -3 -17 5 -12 3 -14
-7 -8 -9 5 -11 4 -6 -3 4 -7 1 -24 -7 -39 -8 -16 -22 -45 -32 -65 -10 -21 -22
-38 -26 -38 -4 0 -5 -8 -2 -19 2 -10 -2 -24 -10 -32 -7 -8 -17 -26 -20 -41 -4
-15 -14 -34 -23 -43 -9 -9 -14 -19 -11 -22 4 -3 0 -18 -8 -33 -14 -27 -14 -28
18 -35 48 -12 50 -13 75 -14 13 0 20 -5 17 -11 -3 -5 -1 -10 4 -10 6 0 11 5
11 12 0 6 8 4 19 -6 11 -10 20 -13 22 -7 2 6 14 8 26 5 13 -4 20 -10 17 -15
-3 -5 2 -9 11 -9 9 0 14 4 11 8 -3 5 1 9 9 9 8 0 15 -4 15 -9 0 -5 6 -8 13 -7
28 4 43 -2 56 -22 11 -18 11 -23 -1 -30 -7 -5 -8 -9 -2 -9 22 0 33 22 18 38
-8 8 -12 17 -9 20 3 3 23 -12 45 -33 22 -22 40 -35 40 -31 0 5 -10 17 -22 27
-22 20 -19 37 4 23 7 -5 20 -7 29 -6 9 2 22 -4 29 -13 10 -12 10 -15 -4 -15
-9 0 -16 5 -16 10 0 6 -5 10 -11 10 -8 0 -8 -5 1 -15 7 -8 19 -15 27 -15 7 0
16 7 19 15 7 17 34 21 34 5 0 -5 -4 -10 -10 -10 -5 0 -10 -5 -10 -12 0 -7 7
-5 18 5 20 18 72 18 65 0 -3 -7 -9 -13 -14 -13 -5 0 -9 -5 -9 -12 0 -6 11 -1
25 12 14 13 28 20 32 17 3 -4 -4 -15 -15 -26 -12 -10 -22 -22 -22 -26 0 -5 11
2 25 15 14 13 38 24 55 25 17 1 28 -1 25 -3 -3 -3 5 -16 17 -29 12 -12 19 -26
15 -29 -4 -4 -20 7 -36 25 -16 17 -33 31 -37 31 -4 0 3 -11 16 -25 13 -14 20
-28 16 -32 -4 -4 -11 -1 -16 6 -7 12 -11 11 -27 -4 -17 -18 -17 -19 1 -12 13
5 26 1 43 -14 12 -13 23 -18 23 -12 0 6 -6 13 -12 16 -7 2 -10 8 -6 12 4 4 14
3 22 -4 11 -9 15 -9 19 1 3 9 9 8 20 -7 8 -10 12 -26 9 -34 -3 -9 -1 -12 6 -7
7 4 12 2 12 -6 0 -7 12 -14 27 -15 15 0 29 -6 31 -12 2 -6 8 -11 13 -11 6 0 8
4 5 9 -4 5 7 4 24 -2 16 -6 27 -13 25 -15 -5 -5 21 -32 31 -32 3 0 1 7 -6 15
-7 9 -10 19 -6 22 4 4 10 2 14 -4 4 -6 14 -11 22 -11 34 2 50 -3 50 -16 0 -19
26 -40 35 -26 3 5 -1 10 -9 10 -9 0 -16 4 -16 10 0 12 96 3 123 -11 9 -6 21
-8 25 -5 5 3 26 0 48 -5 21 -5 63 -12 92 -15 l53 -5 -38 38 c-21 22 -41 37
-45 35 -5 -2 -8 4 -8 13 0 9 -4 13 -10 10 -5 -3 -10 1 -10 10 0 9 -5 13 -10
10 -5 -3 -10 1 -10 9 0 9 5 16 10 16 6 0 10 5 10 12 0 6 -7 4 -18 -5 -24 -22
-33 -22 -25 0 5 12 2 15 -10 10 -11 -4 -14 -2 -10 9 3 7 1 14 -5 14 -6 0 -13
-6 -15 -12 -3 -7 -6 -8 -6 -3 0 6 4 17 9 25 7 12 13 11 34 -10 15 -13 26 -20
26 -15 0 4 -10 16 -21 26 -18 15 -20 21 -9 34 23 27 -1 16 -30 -15 l-27 -29
-27 28 -26 27 30 29 c23 22 27 32 19 42 -6 7 -17 13 -23 12 -7 0 -6 -2 2 -6 6
-2 12 -9 12 -15 0 -15 -28 -39 -35 -29 -3 5 -1 13 5 16 8 5 7 12 -2 23 -11 12
-11 16 0 20 10 3 9 8 -4 23 -14 15 -14 19 -3 19 8 0 21 -9 29 -20 8 -11 19
-20 24 -20 6 0 -6 16 -24 35 -28 29 -32 38 -20 45 8 5 11 12 7 17 -5 4 -12 1
-17 -7 -5 -8 -12 -11 -17 -7 -4 5 -1 12 7 17 8 5 11 13 6 17 -5 4 -11 2 -13
-4 -3 -7 -12 -13 -21 -13 -13 0 -9 7 12 25 34 29 37 30 30 10 -4 -8 -1 -15 5
-15 6 0 11 4 11 9 0 5 7 11 14 14 10 4 13 1 9 -9 -3 -7 -8 -14 -12 -14 -4 0
-8 -13 -8 -30 0 -16 4 -30 9 -30 4 0 8 5 8 11 0 8 4 8 14 0 7 -6 20 -9 27 -6
18 6 46 -11 36 -22 -5 -4 -12 -1 -17 7 -5 8 -12 11 -16 7 -4 -4 3 -16 16 -27
19 -16 21 -22 10 -35 -16 -19 -3 -20 15 -1 10 9 11 16 3 24 -8 8 -6 16 6 28
20 20 34 11 16 -11 -7 -9 -8 -15 -2 -15 6 0 12 5 14 11 5 16 59 14 69 -2 6
-10 9 -11 9 -1 0 6 6 12 14 12 8 0 16 -6 19 -12 3 -10 7 -10 20 1 11 9 17 10
17 2 0 -6 5 -11 11 -11 5 0 8 4 5 8 -3 5 1 9 9 9 18 0 19 -9 3 -25 -9 -9 -9
-12 0 -12 7 0 12 4 12 9 0 5 6 11 14 14 18 7 57 -3 51 -13 -3 -4 3 -14 12 -21
13 -11 17 -11 20 -1 3 6 11 12 19 12 9 0 12 5 9 10 -3 6 1 10 9 10 9 0 16 -4
16 -10 0 -5 5 -10 11 -10 5 0 7 5 4 10 -3 6 1 10 9 10 9 0 16 5 16 10 0 13
-13 13 -27 -1 -8 -8 -13 -8 -17 0 -4 6 0 11 9 11 11 0 15 5 12 14 -4 11 -1 13
10 9 12 -5 15 -2 10 10 -4 11 -2 14 9 10 7 -3 14 0 14 6 0 6 -5 11 -12 11 -6
0 -8 3 -5 6 4 4 13 1 22 -6 13 -11 12 -14 -8 -30 -12 -10 -18 -22 -13 -27 5
-4 11 -2 13 5 3 6 8 12 13 12 4 0 3 -11 -3 -24 -7 -13 -15 -22 -19 -20 -3 2
-9 0 -13 -6 -3 -5 1 -10 9 -10 9 0 16 -4 16 -10 0 -5 10 -10 23 -10 18 0 19
-2 7 -10 -9 -6 -10 -10 -3 -10 6 0 15 5 18 11 5 6 13 3 22 -10 8 -12 20 -21
26 -21 7 0 6 4 -3 10 -22 14 -6 22 21 11 13 -5 20 -10 15 -10 -5 -1 -3 -8 4
-16 14 -17 45 -21 35 -5 -3 6 -2 10 4 10 5 0 16 3 25 6 9 3 16 1 16 -6 0 -6
-4 -9 -9 -5 -5 3 -12 1 -15 -4 -12 -19 12 -20 29 -1 13 14 22 17 35 10 10 -5
20 -6 24 -3 3 3 6 3 6 0 0 -3 -16 -22 -35 -41 -40 -40 -48 -62 -9 -26 17 17
27 21 32 13 5 -8 12 -7 26 3 11 7 16 17 12 21 -4 4 -11 1 -16 -7 -5 -8 -12
-11 -16 -8 -3 4 1 15 11 24 14 15 18 15 26 3 8 -12 10 -12 19 1 7 10 12 12 18
4 4 -6 21 -10 39 -9 24 1 30 -2 25 -13 -3 -10 0 -13 9 -10 8 3 13 11 11 18 -2
11 0 11 13 0 15 -12 15 -14 0 -22 -14 -8 -13 -12 7 -29 17 -15 18 -19 6 -15
-10 3 -20 1 -23 -4 -4 -6 1 -10 11 -10 14 0 15 -2 3 -16 -8 -9 -14 -22 -14
-28 -2 -32 -19 -66 -34 -67 -10 0 -11 -2 -4 -6 8 -3 11 -14 8 -26 -6 -23 -1
-25 70 -27 11 -1 22 -6 26 -12 5 -7 17 -1 34 16 31 31 30 35 -13 38 -18 1 -32
6 -32 11 0 4 -5 5 -11 1 -7 -4 -7 1 1 15 l11 22 18 -20 c10 -12 22 -21 27 -21
4 0 -5 14 -21 30 -22 23 -25 30 -12 30 9 0 17 -4 17 -10 0 -5 6 -10 13 -10 6
1 2 9 -11 20 -13 11 -21 24 -17 30 4 6 23 -7 46 -31 34 -35 41 -39 53 -26 11
11 12 17 4 25 -7 7 -8 15 -4 19 4 4 11 1 16 -7 5 -8 12 -11 17 -7 4 5 1 13 -7
18 -11 8 -12 12 -2 16 6 2 12 9 12 15 0 6 -6 5 -15 -2 -9 -7 -19 -10 -22 -6
-4 4 -1 11 7 16 12 7 10 13 -10 30 -20 17 -22 23 -10 30 12 7 11 12 -8 28 -12
11 -22 25 -22 31 0 7 -5 9 -11 5 -8 -4 -8 -9 0 -17 14 -14 14 -27 1 -27 -5 0
-10 8 -10 18 -1 16 -1 16 -14 0 -14 -18 -42 -26 -31 -9 3 6 -4 15 -15 21 -11
6 -18 15 -14 21 4 6 11 6 20 -2 11 -9 14 -8 14 4 0 8 -6 17 -12 20 -7 3 15 4
49 2 44 -2 66 2 74 11 6 8 16 14 22 14 5 0 0 -8 -11 -19 -23 -19 -29 -41 -12
-41 6 0 10 5 10 12 0 6 3 8 7 5 3 -4 -2 -16 -12 -28 -17 -17 -17 -22 -5 -30
11 -8 12 -12 3 -16 -20 -7 -15 -25 5 -19 20 7 50 -10 38 -21 -5 -4 -11 -2 -13
5 -3 6 -10 12 -16 12 -6 0 -1 -10 10 -22 29 -33 37 -49 21 -46 -7 2 -12 -3
-10 -11 3 -13 -54 -89 -92 -123 -10 -10 -14 -18 -8 -18 7 0 12 -7 12 -15 0 -8
5 -15 11 -15 6 0 9 7 5 15 -4 13 -2 14 14 5 24 -13 50 6 42 30 -4 13 -3 13 10
2 9 -7 18 -9 20 -5 3 4 3 3 2 -4 -2 -7 1 -15 6 -18 6 -4 10 1 10 10 0 9 4 14
10 10 5 -3 7 -12 4 -20 -3 -8 1 -22 10 -30 9 -10 16 -12 16 -5 0 6 4 9 9 6 5
-3 16 5 25 19 15 23 15 25 -1 25 -13 0 -12 5 10 28 15 16 24 31 21 35 -4 4
-13 -1 -20 -11 -8 -9 -14 -12 -14 -5 0 6 5 15 10 18 8 5 7 11 -1 21 -6 8 -10
17 -7 19 2 3 29 -22 59 -55 31 -33 53 -63 50 -65 -9 -9 -22 -5 -16 5 3 6 1 10
-4 10 -6 0 -11 -5 -11 -10 0 -6 -8 -5 -21 2 -17 11 -22 10 -35 -7 -14 -18 -13
-21 2 -30 10 -5 28 -20 41 -32 12 -12 25 -17 28 -12 4 5 1 9 -5 9 -6 0 -8 5
-4 12 5 8 13 5 25 -10 9 -12 20 -22 24 -22 4 0 2 7 -5 15 -15 18 -13 20 17 29
28 9 39 -10 19 -33 -9 -10 -16 -21 -16 -26 0 -4 8 2 19 13 18 22 41 29 41 14
0 -5 18 -7 40 -6 23 1 46 -4 54 -11 10 -11 16 -11 25 -2 8 8 14 8 19 2 4 -6
20 -11 35 -12 21 -1 27 3 23 16 -8 25 9 47 27 33 7 -7 17 -8 22 -4 4 4 3 -3
-4 -15 -13 -26 -15 -44 -1 -23 8 12 13 11 33 -8 13 -12 29 -22 36 -22 7 0 9
-5 5 -12 -6 -10 -4 -10 8 0 11 9 18 10 23 2 9 -14 45 6 45 26 0 8 5 12 10 9
17 -11 11 0 -12 19 -16 14 -20 15 -15 3 4 -11 0 -13 -14 -10 -10 3 -19 10 -19
15 0 5 -5 6 -10 3 -6 -3 -10 1 -10 9 0 9 -4 16 -8 16 -5 0 -9 7 -9 15 0 8 4
12 9 9 4 -3 8 2 8 11 0 9 5 13 10 10 6 -3 10 0 10 7 0 18 49 22 68 6 12 -11
16 -10 19 0 3 6 9 10 14 6 18 -11 8 16 -13 36 -19 18 -20 22 -8 30 8 5 24 7
35 5 11 -3 14 -2 8 1 -19 9 -16 17 22 58 40 44 47 61 10 26 l-24 -23 11 31 c7
17 15 29 19 26 4 -2 10 3 13 12 9 24 7 31 -4 14 -6 -9 -10 -10 -10 -3 0 6 5
15 10 18 6 3 10 15 10 27 0 17 2 18 15 8 13 -11 13 -15 3 -21 -9 -6 -9 -9 -1
-9 19 0 27 21 12 31 -8 5 -9 9 -4 9 6 0 5 4 -2 8 -17 11 -5 52 15 52 12 0 13
3 4 12 -9 9 -6 19 14 45 14 19 23 37 20 40 -3 4 -6 0 -6 -7 0 -7 -3 -11 -6 -8
-3 4 0 17 7 30 7 12 12 27 11 31 -1 4 3 18 10 30 7 12 11 25 10 30 -1 4 5 7
14 7 13 0 14 3 5 14 -8 10 -9 16 -1 21 6 3 8 11 5 16 -4 5 -1 9 5 9 6 0 18 7
26 15 9 8 12 15 7 15 -5 0 -14 -5 -21 -12 -16 -16 -15 -6 2 27 11 22 16 24 23
12 7 -14 10 -14 28 0 18 14 18 15 1 9 -12 -4 -25 1 -38 16 -15 17 -21 19 -27
9 -6 -10 -10 -10 -16 -1 -4 6 -13 9 -21 6 -23 -9 -16 12 10 30 14 8 27 21 29
27 2 7 3 4 2 -5 -2 -9 11 -29 28 -45 17 -15 25 -20 18 -10 -17 22 -7 34 14 17
12 -10 15 -10 15 4 0 9 3 16 8 16 9 0 14 60 4 61 -41 7 -73 5 -61 -2 11 -7 11
-9 -2 -9 -9 0 -19 7 -23 15 -3 8 0 15 6 15 6 0 8 3 4 7 -4 4 -18 -5 -31 -19
-13 -14 -21 -29 -18 -32 4 -3 1 -6 -5 -6 -17 0 -15 26 3 43 12 13 11 14 -13
14 -21 -1 -27 -7 -29 -25 -1 -26 -10 -39 -19 -29 -4 4 -2 13 5 21 9 11 8 17
-4 30 -9 9 -21 14 -26 11 -5 -4 -9 -3 -9 2 0 4 -21 9 -47 10 -25 1 -49 7 -53
12 -9 16 -44 -29 -48 -62 -2 -20 1 -25 12 -21 9 3 18 14 21 25 4 11 10 17 15
14 5 -3 11 1 13 7 4 9 6 9 6 1 1 -6 -5 -18 -13 -25 -11 -12 -11 -17 0 -33 14
-18 14 -18 29 1 11 14 14 15 15 4 0 -16 40 -47 40 -31 0 5 -5 11 -11 13 -7 2
-4 15 8 36 11 17 22 29 26 26 3 -4 -1 -17 -10 -30 -9 -15 -11 -24 -4 -24 6 0
10 -4 9 -9 -2 -5 2 -9 7 -9 6 0 9 3 8 7 -1 4 5 8 13 8 20 0 18 -25 -3 -31 -10
-3 -30 -3 -46 -1 -21 4 -34 -1 -54 -22 -18 -17 -23 -28 -15 -31 7 -2 9 -8 6
-14 -4 -6 -10 -5 -15 3 -4 7 -11 10 -15 6 -4 -3 -1 -13 6 -22 24 -29 -1 -15
-37 22 -23 22 -32 38 -25 41 7 2 12 8 12 14 0 6 -6 8 -14 5 -8 -3 -13 1 -12
11 0 9 -5 16 -12 14 -8 -1 -11 1 -8 6 3 5 -12 8 -32 7 -20 -1 -46 4 -57 12
-23 15 -39 17 -30 3 3 -6 -1 -7 -9 -4 -9 3 -16 11 -16 17 0 6 3 8 6 4 8 -7 34
17 34 32 0 6 8 11 18 11 12 0 14 2 4 8 -7 5 -10 16 -6 25 5 13 0 17 -22 18
-25 0 -26 1 -9 9 11 5 14 9 8 9 -7 1 -13 8 -13 16 0 24 -18 17 -33 -11 -9 -18
-16 -23 -21 -15 -4 7 -2 20 6 29 12 15 11 16 -4 3 -15 -11 -21 -11 -35 0 -15
12 -16 12 -10 -3 4 -13 1 -18 -11 -19 -10 0 -12 -3 -4 -6 6 -2 12 -11 12 -19
0 -9 -5 -12 -10 -9 -7 4 -9 -2 -5 -17 5 -18 -1 -32 -23 -56 -30 -32 -52 -41
-52 -22 0 6 -5 10 -12 10 -6 0 -3 -9 7 -20 19 -21 19 -20 62 22 23 23 46 39
49 35 4 -4 -2 -15 -12 -24 -11 -10 -18 -26 -16 -35 2 -9 -6 -25 -17 -35 -15
-12 -17 -19 -9 -24 9 -6 7 -13 -6 -28 -10 -11 -15 -24 -11 -30 3 -6 0 -9 -7
-6 -15 5 -68 -38 -68 -56 0 -7 14 0 30 16 17 16 30 23 30 17 0 -7 -5 -12 -11
-12 -5 0 -7 -4 -4 -10 3 -5 -1 -10 -10 -10 -9 0 -13 -4 -10 -10 3 -5 -1 -10
-9 -10 -9 0 -16 -7 -16 -15 0 -8 4 -15 9 -15 5 0 12 -8 15 -17 4 -11 -6 -5
-25 14 l-32 31 -20 -21 c-19 -22 -19 -22 -2 7 13 22 15 31 6 34 -9 3 -9 7 0
18 7 8 9 18 5 21 -4 4 -11 1 -16 -7 -6 -9 -8 0 -6 25 2 22 9 41 15 43 6 2 11
8 11 14 0 6 -7 8 -15 4 -20 -7 -19 -4 5 24 19 22 22 23 37 7 9 -9 13 -20 9
-24 -4 -4 -11 -1 -16 7 -5 8 -12 11 -17 7 -4 -5 -1 -12 7 -18 13 -8 13 -10 0
-19 -13 -9 -13 -11 0 -20 13 -9 13 -11 0 -19 -8 -6 -11 -13 -7 -18 5 -4 13 -1
18 7 8 11 12 12 16 3 2 -7 11 -13 19 -13 9 0 13 4 10 8 -3 5 6 15 19 22 l25
13 -50 49 c-46 44 -52 48 -66 34 -20 -21 -23 -20 -17 4 3 11 10 20 17 20 7 0
7 3 1 8 -5 4 -15 16 -21 28 -10 17 -9 22 7 32 10 7 27 12 38 12 14 0 18 5 14
19 -2 10 2 24 10 32 19 19 17 49 -2 49 -9 0 -23 9 -31 20 -8 11 -19 20 -24 20
-5 0 -1 -9 9 -20 10 -11 15 -26 11 -36 -4 -10 -2 -20 4 -24 6 -4 1 -19 -14
-39 -15 -20 -27 -28 -31 -21 -4 6 3 19 14 29 12 10 21 22 21 26 0 5 -11 -2
-25 -15 -14 -13 -28 -20 -32 -15 -5 4 -2 10 5 12 10 4 10 8 1 19 -7 8 -9 18
-5 21 4 4 11 1 16 -6 7 -12 11 -11 25 3 16 16 16 18 -5 36 -19 16 -21 22 -10
35 7 9 8 15 2 15 -5 0 -12 7 -16 15 -3 8 0 14 7 12 7 -1 11 4 9 11 -1 7 3 23
10 35 6 12 14 42 16 67 2 25 9 51 15 59 10 12 9 12 -10 3 -16 -9 -24 -9 -29
-1 -4 8 -9 7 -14 -2 -7 -10 -12 -10 -26 2 -11 9 -15 9 -10 2 5 -9 0 -13 -13
-13 -12 0 -21 5 -21 11 0 6 -8 3 -17 -7 -16 -15 -17 -15 -24 2 -6 15 -8 15 -8
3 -1 -12 -12 -16 -48 -15 -27 1 -54 -3 -61 -8 -7 -5 -16 -6 -19 -2 -4 4 -1 11
7 16 8 5 12 11 9 14 -3 3 -16 -4 -28 -15 l-22 -21 -25 23 c-13 12 -24 17 -24
11 0 -7 4 -12 9 -12 5 0 12 -7 15 -16 7 -18 -8 -11 -41 19 -13 11 -23 15 -23
9 0 -7 4 -12 9 -12 5 0 11 -6 14 -13 3 -9 -5 -13 -27 -12 -17 0 -36 -3 -43 -8
-6 -4 -14 -3 -18 3 -3 5 -1 10 4 10 6 0 11 5 11 12 0 6 -11 1 -25 -12 -14 -13
-28 -20 -32 -15 -5 4 -2 10 4 12 7 3 13 10 13 16 0 6 -11 0 -25 -13 -14 -13
-28 -20 -32 -17 -3 4 4 16 17 27 13 11 19 20 15 20 -5 0 -24 -14 -42 -32 -18
-18 -33 -27 -33 -20 0 7 -5 12 -11 12 -5 0 -8 -3 -6 -7 10 -15 -48 -11 -65 4
-11 10 -18 12 -18 5 0 -7 5 -12 11 -12 5 0 7 -5 4 -10 -5 -8 -11 -8 -19 -1 -9
7 -16 7 -25 -2 -11 -9 -14 -9 -18 1 -4 10 -8 10 -19 1 -8 -7 -18 -8 -22 -4 -4
4 -1 10 6 12 6 3 12 10 12 16 0 6 -11 0 -25 -13 -30 -28 -93 -35 -117 -13 -11
10 -18 12 -18 5 0 -7 5 -12 11 -12 5 0 7 -5 4 -10 -5 -8 -11 -8 -20 0 -10 8
-14 7 -17 -2 -4 -10 -8 -10 -21 1 -11 9 -17 10 -17 2 0 -6 -7 -11 -15 -11 -8
0 -15 5 -15 10 0 6 5 10 10 10 6 0 10 5 10 12 0 6 -12 0 -27 -14 -30 -27 -87
-36 -110 -16 -8 6 -16 8 -20 4 -3 -3 -1 -6 6 -6 7 0 9 -5 6 -11 -5 -7 -16 -2
-31 12 -13 12 -24 18 -24 12 0 -6 6 -13 13 -16 6 -2 9 -8 5 -12 -5 -5 -17 0
-28 10 -11 10 -23 15 -27 12 -3 -4 -1 -7 5 -7 7 0 12 -4 12 -10 0 -5 -7 -10
-15 -10 -8 0 -15 5 -15 10 0 5 -8 2 -18 -7 -10 -10 -17 -20 -15 -22 1 -2 -7
-9 -19 -15 -23 -12 -36 -36 -20 -36 6 0 12 8 14 18 2 10 6 13 10 6 4 -6 -2
-21 -13 -33 -11 -12 -17 -26 -13 -33 5 -7 3 -8 -5 -3 -7 4 -22 -2 -37 -16 -13
-12 -24 -17 -24 -11 0 7 5 12 11 12 6 0 8 9 4 23 -5 17 -4 18 4 7 5 -8 13 -11
17 -7 4 3 1 13 -6 22 -8 10 -9 15 -1 15 6 0 11 5 11 11 0 6 14 24 31 40 18 16
30 32 27 34 -3 3 -12 -3 -22 -14 -16 -17 -72 -19 -61 -1 6 10 -24 35 -32 26
-3 -3 -1 -6 5 -6 7 0 12 -5 12 -11 0 -6 -8 -8 -17 -5 -10 3 -38 7 -62 10 -45
5 -65 16 -43 23 6 3 12 9 12 15 0 6 -8 4 -17 -4 -23 -20 -74 -21 -66 -2 3 8 9
14 14 14 5 0 9 5 9 12 0 6 -11 1 -25 -12 l-25 -24 -28 27 c-16 15 -32 27 -37
27 -4 0 2 -8 13 -19 24 -20 30 -37 10 -24 -7 4 -20 8 -28 9 -54 4 -54 4 -42
16 22 22 13 29 -10 8 -13 -12 -25 -17 -31 -11 -5 5 -16 7 -23 4 -10 -4 -12 0
-7 13 6 17 5 17 -10 5 -10 -8 -21 -10 -25 -6 -4 4 -1 10 6 12 6 3 12 9 12 15
0 5 -12 0 -27 -12 -15 -11 -29 -16 -32 -11 -4 5 -13 9 -21 9 -8 -1 -24 0 -34
0 -18 2 -18 3 -1 22 10 11 15 20 10 20 -4 0 -16 -10 -26 -22 -11 -11 -22 -18
-26 -15 -3 4 1 15 10 25 27 30 19 35 -9 7 -26 -26 -59 -27 -76 -1 -6 8 -8 7
-8 -1 0 -19 -13 -16 -40 9 -19 18 -23 19 -17 5z m2057 -257 c-12 -7 -10 -12 9
-30 14 -11 21 -23 17 -27 -4 -4 -11 -1 -16 6 -7 12 -11 11 -26 -3 -14 -15 -15
-19 -3 -27 12 -8 12 -10 -1 -18 -12 -8 -10 -13 10 -31 18 -16 21 -23 12 -32
-7 -7 -12 -8 -12 -2 0 6 -22 34 -50 62 -47 48 -68 79 -35 52 11 -10 18 -9 30
4 9 9 13 21 9 27 -4 8 -3 9 5 5 13 -8 41 16 41 35 0 10 3 10 12 1 10 -10 10
-15 -2 -22z m-1280 -26 c0 -3 -7 -12 -15 -21 -20 -19 -32 -10 -14 11 14 15 29
21 29 10z m-585 -41 c14 -14 18 -14 26 -2 6 10 11 11 17 3 4 -7 24 -10 44 -9
l37 3 -37 -40 c-20 -21 -38 -35 -40 -29 -2 6 7 20 20 30 12 11 20 23 16 27 -5
4 -17 -3 -28 -17 -17 -19 -23 -21 -30 -10 -7 12 -11 12 -24 -2 -9 -8 -16 -21
-16 -28 0 -6 -13 2 -30 19 -36 38 -40 55 -5 22 14 -13 28 -20 32 -17 3 4 -4
16 -18 27 -19 18 -21 23 -9 30 21 13 26 12 45 -7z m531 -19 c-21 -20 -28 -17
-14 5 7 11 16 17 20 15 5 -3 2 -12 -6 -20z m1303 -61 c2 -2 1 -6 -3 -10 -6 -7
-86 72 -86 85 0 3 19 -12 42 -33 24 -22 45 -41 47 -42z m-1696 50 c-18 -6 -16
-20 3 -27 8 -3 13 -2 10 3 -8 13 22 34 39 27 8 -3 15 -11 14 -18 0 -10 -2 -10
-6 0 -2 6 -11 12 -18 12 -17 0 -26 -35 -12 -49 8 -8 7 -11 -2 -11 -7 0 -10 -7
-7 -18 4 -10 0 -27 -8 -37 -12 -17 -15 -18 -30 -3 -20 21 -21 38 -1 38 8 0 19
9 25 20 9 16 8 20 -5 20 -8 0 -15 5 -15 10 0 6 -4 10 -10 10 -5 0 -10 -7 -10
-15 0 -8 -5 -15 -11 -15 -8 0 -9 -4 0 -13 15 -19 2 -29 -15 -12 -8 7 -14 16
-14 19 0 11 74 76 79 69 3 -3 0 -8 -6 -10z m-174 -51 c3 -1 -13 -20 -34 -42
-24 -24 -33 -40 -24 -40 8 0 23 11 33 25 10 14 31 38 47 55 l28 29 58 -60 c32
-33 59 -66 60 -72 4 -17 -15 -43 -24 -34 -4 5 -1 12 6 17 12 7 11 11 -4 26
-17 17 -17 17 -11 -4 9 -26 1 -28 -21 -6 -14 13 -14 17 -2 24 7 5 10 13 5 17
-5 4 -11 2 -13 -4 -6 -18 -23 -16 -23 2 0 8 5 15 12 15 6 0 8 3 5 6 -4 4 -14
1 -22 -6 -14 -12 -10 -19 32 -62 27 -28 41 -48 32 -48 -8 0 -21 9 -29 20 -10
14 -17 17 -27 8 -7 -6 -17 -8 -20 -4 -4 4 -1 11 7 16 8 5 11 12 7 17 -5 4 -12
1 -17 -7 -5 -8 -12 -11 -16 -7 -4 3 -1 13 6 22 16 19 4 20 -15 1 -10 -10 -11
-16 -3 -24 7 -7 8 -15 4 -19 -4 -4 -11 -1 -17 7 -8 13 -10 13 -18 0 -6 -8 -13
-11 -17 -7 -4 4 7 22 25 41 27 28 30 35 17 45 -12 10 -22 5 -58 -28 -23 -23
-39 -41 -34 -41 6 0 20 10 33 22 13 12 26 18 30 15 3 -4 -7 -18 -23 -32 -21
-18 -25 -25 -12 -25 9 0 19 -6 21 -12 4 -10 8 -9 16 2 10 13 12 13 21 0 9 -13
11 -13 19 0 6 8 13 11 18 7 4 -5 1 -12 -7 -17 -8 -5 -11 -12 -7 -17 5 -4 12
-1 17 7 7 12 13 10 30 -9 11 -14 23 -21 27 -17 4 4 1 11 -7 16 -8 5 -11 12 -8
15 9 10 28 -4 28 -20 0 -14 -53 -75 -65 -75 -4 0 -2 7 5 15 7 9 10 19 6 22 -4
4 -11 1 -16 -7 -7 -11 -15 -7 -39 19 -18 19 -35 30 -42 25 -8 -5 -9 -3 -5 5 9
14 -24 42 -39 34 -5 -4 -7 -2 -2 2 4 5 -7 24 -25 42 -19 20 -26 31 -15 28 9
-4 17 -11 17 -16 0 -5 7 -9 17 -9 14 0 14 2 -2 20 -17 19 -17 20 -1 20 9 0 15
4 11 10 -3 5 -11 8 -18 6 -7 -1 -9 -1 -4 1 4 3 5 9 1 14 -3 5 0 9 5 9 6 0 11
-4 11 -10 0 -5 6 -10 13 -10 8 0 14 7 14 15 0 8 -6 15 -13 15 -15 0 -29 19
-20 27 3 4 17 -4 31 -17 18 -17 25 -19 25 -9 0 8 -9 21 -20 29 -11 8 -20 19
-20 24 0 5 12 -1 28 -15 15 -13 29 -25 31 -27z m551 23 c7 -8 9 -15 6 -15 -4
0 -14 7 -22 15 -9 8 -11 15 -6 15 5 0 15 -7 22 -15z m1618 -20 c-8 -18 -13
-21 -23 -12 -11 10 -10 13 2 15 8 2 12 10 9 17 -3 9 0 12 9 9 11 -4 11 -11 3
-29z m-1943 15 c3 -5 1 -10 -4 -10 -6 0 -11 5 -11 10 0 6 2 10 4 10 3 0 8 -4
11 -10z m1590 -10 c17 -19 17 -19 -8 -7 -14 6 -23 15 -21 19 7 11 9 10 29 -12z
m405 0 c0 -5 -6 -10 -12 -10 -10 0 -10 -2 0 -9 23 -14 -27 -63 -56 -55 -18 5
-20 9 -11 20 16 20 30 17 22 -3 -5 -14 -1 -13 16 4 11 12 21 26 20 30 -3 19 2
33 11 33 6 0 10 -4 10 -10z m-2050 -19 c0 -4 -7 -8 -15 -8 -16 0 -20 9 -9 20
8 8 24 -1 24 -12z m2340 -10 c0 -6 -5 -13 -10 -16 -6 -4 -8 -11 -5 -16 4 -5 1
-9 -5 -9 -7 0 -9 7 -6 16 3 9 6 20 6 25 0 5 5 9 10 9 6 0 10 -4 10 -9z m-2494
-58 c-10 -10 -19 5 -10 18 6 11 8 11 12 0 2 -7 1 -15 -2 -18z m2718 -7 c-6
-16 -24 -23 -24 -8 0 10 22 33 27 28 2 -2 1 -11 -3 -20z m-2234 0 c0 -3 -4 -8
-10 -11 -5 -3 -10 -1 -10 4 0 6 5 11 10 11 6 0 10 -2 10 -4z m2116 -42 c-9 -9
-20 -13 -24 -9 -4 3 2 13 12 21 25 18 33 10 12 -12z m-2516 -24 c0 -5 -4 -10
-10 -10 -5 0 -10 5 -10 10 0 6 5 10 10 10 6 0 10 -4 10 -10z m1903 -12 c-13
-12 -25 -19 -29 -16 -9 9 18 37 36 38 10 0 8 -6 -7 -22z m30 -5 c4 -3 -1 -12
-11 -19 -21 -16 -32 -17 -32 -4 0 6 7 10 16 10 8 0 12 5 9 10 -7 11 8 14 18 3z
m407 -85 c0 -10 -36 25 -60 57 -8 11 3 4 23 -14 20 -19 37 -39 37 -43z m-2010
22 c0 -5 -5 -10 -11 -10 -5 0 -7 5 -4 10 3 6 8 10 11 10 2 0 4 -4 4 -10z
m-552 -14 c-7 -8 -15 -12 -17 -11 -5 6 10 25 20 25 5 0 4 -6 -3 -14z m538 -21
c9 -8 12 -15 7 -15 -5 0 -14 5 -21 12 -9 9 -12 9 -12 0 0 -7 -5 -12 -11 -12
-8 0 -8 5 1 15 7 8 14 15 17 15 2 0 11 -7 19 -15z m-503 -20 c-3 -9 -8 -14
-10 -11 -3 3 -2 9 2 15 9 16 15 13 8 -4z m507 -9 c0 -11 -19 -15 -25 -6 -3 5
1 10 9 10 9 0 16 -2 16 -4z m1610 -6 c0 -5 -2 -10 -4 -10 -3 0 -8 5 -11 10 -3
6 -1 10 4 10 6 0 11 -4 11 -10z m-1640 -20 c0 -5 -2 -10 -4 -10 -3 0 -8 5 -11
10 -3 6 -1 10 4 10 6 0 11 -4 11 -10z m1597 -16 c14 -14 23 -27 21 -30 -3 -2
-17 10 -33 26 -35 36 -24 40 12 4z m-1611 -9 c14 -13 14 -17 1 -30 -13 -12
-17 -12 -32 5 -10 11 -13 20 -7 20 6 0 12 -6 15 -12 2 -7 8 -10 12 -6 4 4 2
14 -5 23 -16 19 -3 20 16 0z m1591 -11 c14 -14 23 -27 21 -30 -3 -2 -17 10
-33 26 -35 36 -24 40 12 4z m-1157 2 c0 -3 -4 -8 -10 -11 -5 -3 -10 -1 -10 4
0 6 5 11 10 11 6 0 10 -2 10 -4z m1140 -66 c-19 -16 -21 -22 -10 -35 7 -9 8
-15 2 -15 -19 0 -23 33 -6 51 16 18 16 20 1 37 -27 30 -19 35 9 7 l26 -26 -22
-19z m-1611 10 c-7 -5 -10 -12 -6 -16 4 -4 23 8 42 26 19 19 35 29 35 22 0 -7
7 -12 16 -12 8 0 12 5 9 10 -3 6 1 10 9 10 21 0 20 -16 -1 -24 -14 -6 -13 -9
8 -23 43 -30 49 -39 36 -52 -9 -9 -8 -14 3 -21 22 -14 -1 -32 -45 -36 -34 -2
-35 -1 -18 12 17 13 16 14 -11 8 -21 -5 -27 -4 -22 5 4 6 12 9 17 6 5 -4 9 -2
9 4 0 15 -23 26 -28 13 -2 -7 -8 -12 -14 -12 -6 0 -5 6 2 15 7 9 9 19 5 23 -4
4 -10 1 -12 -5 -3 -7 -9 -13 -15 -13 -6 0 -5 6 2 15 7 9 10 19 6 22 -4 4 -11
1 -16 -7 -12 -20 -22 -7 -26 35 -2 32 -1 33 13 19 14 -13 14 -17 2 -24z m427
12 c-17 -16 -18 -16 -5 5 7 12 15 20 18 17 3 -2 -3 -12 -13 -22z m314 24 c0
-3 -4 -8 -10 -11 -5 -3 -10 -1 -10 4 0 6 5 11 10 11 6 0 10 -2 10 -4z m-260
-10 c0 -3 -7 -12 -17 -21 -13 -14 -14 -18 -3 -25 11 -7 10 -12 -4 -25 -13 -13
-20 -15 -28 -7 -8 8 -15 9 -25 1 -29 -25 -10 4 27 41 38 38 50 46 50 36z m280
-10 c0 -3 -4 -8 -10 -11 -5 -3 -10 -1 -10 4 0 6 5 11 10 11 6 0 10 -2 10 -4z
m230 -61 c-7 -9 -15 -13 -17 -11 -6 6 20 36 26 30 2 -2 -2 -10 -9 -19z m640
15 c0 -5 -5 -10 -11 -10 -5 0 -7 5 -4 10 3 6 8 10 11 10 2 0 4 -4 4 -10z
m-354 -68 c-6 -5 -36 23 -36 34 0 4 9 -1 20 -11 11 -10 18 -20 16 -23z m48 13
c-4 -8 -11 -15 -16 -15 -6 0 -5 6 2 15 7 8 14 15 16 15 2 0 1 -7 -2 -15z m290
0 c-4 -8 -11 -15 -16 -15 -6 0 -5 6 2 15 7 8 14 15 16 15 2 0 1 -7 -2 -15z
m-1004 -4 c0 -6 -4 -13 -10 -16 -5 -3 -10 1 -10 9 0 9 5 16 10 16 6 0 10 -4
10 -9z m625 -1 c3 -5 1 -10 -4 -10 -6 0 -11 5 -11 10 0 6 2 10 4 10 3 0 8 -4
11 -10z m-1084 -74 c5 3 9 0 9 -5 0 -6 -4 -11 -9 -11 -14 0 -60 47 -53 55 3 3
15 -5 25 -19 10 -15 23 -24 28 -20z m9 29 c0 -8 -4 -15 -9 -15 -13 0 -22 16
-14 24 11 11 23 6 23 -9z m739 -8 c-2 -1 -12 -9 -21 -16 -15 -12 -18 -11 -18
3 0 10 8 16 22 16 12 0 19 -1 17 -3z m967 -43 c20 -19 34 -37 32 -39 -2 -3
-22 13 -43 35 -22 22 -36 40 -32 40 4 0 24 -16 43 -36z m-655 -22 c-6 -2 -11
-9 -11 -15 0 -6 11 0 25 13 14 13 28 20 32 16 4 -4 1 -11 -6 -16 -12 -7 -11
-11 3 -25 9 -10 20 -14 24 -11 3 4 0 11 -8 16 -13 8 -13 12 2 27 10 9 21 13
25 9 4 -4 1 -11 -7 -16 -12 -7 -10 -13 10 -30 20 -18 22 -23 10 -31 -13 -8
-13 -10 0 -19 13 -9 13 -11 0 -20 -13 -9 -13 -11 0 -19 8 -6 11 -13 7 -17 -4
-4 -25 10 -48 32 -22 21 -35 40 -28 43 6 2 14 -1 18 -7 4 -7 13 -5 25 4 11 7
16 17 12 21 -4 4 -11 1 -16 -7 -7 -12 -13 -11 -33 8 -13 12 -26 19 -29 16 -4
-3 -16 -3 -28 1 -20 6 -20 8 -5 25 14 16 14 18 0 23 -8 4 -15 12 -15 18 0 7
12 2 26 -12 14 -13 20 -25 15 -27z m646 -9 c27 -27 42 -48 35 -51 -7 -2 -12
-8 -12 -14 0 -6 7 -8 15 -4 22 8 19 3 -20 -40 -25 -26 -35 -33 -35 -21 0 19
-16 23 -22 5 -3 -8 -12 -4 -26 10 -25 25 -37 28 -29 8 4 -10 1 -13 -9 -9 -7 3
-14 9 -14 14 0 5 -5 9 -11 9 -6 0 -8 -9 -4 -21 l7 -22 -23 22 c-25 23 -39 27
-39 9 0 -6 -3 -8 -6 -5 -4 4 -1 13 6 22 10 12 10 15 -4 15 -9 0 -16 -4 -16
-10 0 -5 -5 -10 -11 -10 -8 0 -8 5 1 15 7 8 19 15 27 15 7 0 16 -7 19 -15 7
-17 34 -20 34 -4 0 8 4 8 15 -1 11 -10 18 -9 30 4 9 9 14 20 10 26 -3 6 1 7 9
4 19 -7 22 12 4 19 -10 4 -10 8 1 15 7 5 10 15 7 21 -10 16 0 13 19 -5 26 -26
31 -6 5 21 -42 44 -11 26 37 -22z m-404 -40 c-3 -7 0 -13 6 -13 6 0 11 5 11
10 0 6 5 10 12 10 9 0 9 -3 0 -12 -7 -7 -26 -13 -41 -13 -19 0 -27 4 -24 13 3
6 1 12 -5 12 -6 0 -12 -6 -15 -12 -2 -7 -8 -9 -13 -5 -12 12 16 26 47 24 16
-1 25 -7 22 -14z m98 -8 c8 3 21 1 29 -5 12 -7 9 -13 -15 -34 l-29 -25 -18 21
c-10 12 -21 18 -25 15 -3 -4 4 -18 17 -32 13 -14 19 -25 14 -25 -6 0 -20 11
-32 25 -18 21 -20 28 -10 39 11 12 16 11 35 -7 13 -11 26 -17 30 -14 3 4 -4
15 -15 26 -24 20 -31 41 -8 22 7 -6 20 -9 27 -6z m79 -11 c0 -7 -27 -34 -34
-34 -4 0 -1 9 6 20 12 19 28 27 28 14z m280 -59 c-15 -18 1 -20 18 -3 9 9 12
9 12 0 0 -7 7 -12 16 -12 9 0 12 5 8 11 -5 8 -2 9 11 2 10 -6 25 -8 35 -6 9 2
22 -3 29 -11 8 -9 18 -16 23 -16 6 0 6 6 -1 14 -10 12 -8 13 8 9 24 -6 27 -16
8 -31 -8 -7 -18 -7 -27 -2 -9 5 -19 5 -26 -1 -8 -7 -14 -6 -19 1 -3 6 -11 8
-16 4 -5 -3 -6 -11 -2 -17 4 -7 -1 -5 -12 3 -16 14 -16 15 -1 18 9 2 14 8 10
13 -3 6 -11 5 -21 -2 -12 -10 -17 -10 -25 2 -7 11 -11 11 -15 1 -4 -10 -8 -10
-19 -1 -12 10 -17 8 -28 -7 -8 -10 -12 -23 -8 -28 3 -5 -2 -7 -11 -3 -11 4
-17 1 -17 -9 0 -8 5 -12 10 -9 17 11 11 -10 -10 -33 -11 -11 -17 -27 -15 -35
7 -16 -32 -63 -43 -53 -4 4 3 16 16 26 14 12 20 24 15 36 -4 11 0 22 12 30 10
8 15 17 11 21 -4 4 -11 1 -16 -7 -7 -12 -13 -10 -31 10 -11 14 -26 24 -31 22
-5 -1 -7 2 -4 7 9 13 46 1 46 -15 0 -8 5 -14 10 -14 6 0 10 5 10 11 0 15 26
39 34 32 3 -4 6 -1 6 6 0 6 12 23 28 36 29 25 43 25 22 0z m-217 -42 c-17 -25
-17 -25 -26 -5 -12 25 11 56 30 40 9 -8 8 -16 -4 -35z m-273 18 c0 -5 -6 -14
-14 -20 -12 -10 -13 -8 -9 8 5 21 23 30 23 12z m263 -56 c56 -54 72 -80 42
-69 -8 4 -16 14 -16 23 -1 14 -2 14 -6 -1 -2 -10 -9 -18 -14 -18 -6 0 -7 9 -4
20 4 12 2 20 -5 20 -6 0 -8 5 -5 10 3 6 -2 10 -11 10 -16 0 -16 -1 1 -20 17
-19 17 -20 1 -20 -9 0 -14 -4 -11 -10 3 -5 -1 -10 -11 -10 -12 0 -14 4 -7 13
6 6 11 26 11 44 0 24 -3 30 -14 26 -10 -4 -12 0 -7 13 6 17 5 17 -10 5 -15
-12 -17 -12 -11 3 3 9 9 16 13 16 3 0 32 -25 64 -55z m274 19 c2 -5 -6 -20
-17 -32 -12 -12 -18 -27 -15 -32 3 -5 0 -7 -8 -4 -12 4 -12 10 -3 29 6 13 14
21 18 19 5 -3 8 2 8 11 0 10 -5 13 -12 9 -7 -4 -8 -3 -4 5 9 13 28 10 33 -5z
m-39 -92 c6 -18 -15 -14 -22 4 -4 10 -1 14 6 12 6 -2 14 -10 16 -16z"/>
<path d="M2842 2524 c-21 -22 -22 -26 -7 -40 9 -9 19 -13 23 -10 3 4 0 11 -8
16 -12 7 -11 12 8 28 12 11 22 22 22 26 0 12 -15 4 -38 -20z"/>
<path d="M990 2501 c0 -12 29 -35 36 -28 4 3 -1 13 -9 22 -17 17 -27 19 -27 6z"/>
<path d="M1050 2480 c0 -5 5 -10 10 -10 6 0 10 5 10 10 0 6 -4 10 -10 10 -5 0
-10 -4 -10 -10z"/>
<path d="M1161 2381 c-8 -6 -9 -11 -3 -15 6 -3 14 -1 17 5 9 14 2 20 -14 10z"/>
<path d="M1021 2411 c-12 -8 -12 -12 2 -25 20 -20 34 -21 17 -1 -7 9 -9 19 -5
23 4 4 10 1 12 -5 3 -7 9 -13 15 -13 6 0 6 6 -2 15 -14 17 -20 18 -39 6z"/>
<path d="M990 2255 c0 -3 12 -18 26 -32 21 -21 28 -23 35 -12 8 12 10 12 18
-1 6 -8 13 -11 17 -8 3 4 -1 15 -11 24 -14 14 -18 15 -25 3 -7 -11 -13 -9 -28
9 -19 21 -32 28 -32 17z"/>
<path d="M1380 2024 c0 -4 10 -15 22 -25 11 -11 18 -22 15 -25 -4 -4 -15 4
-26 17 -11 13 -22 21 -26 17 -4 -4 9 -23 29 -43 31 -30 38 -34 55 -23 15 9 17
15 8 30 -7 10 -16 18 -22 18 -6 0 -16 9 -23 20 -11 19 -32 28 -32 14z m70 -64
c0 -5 -7 -10 -15 -10 -8 0 -15 5 -15 10 0 6 7 10 15 10 8 0 15 -4 15 -10z"/>
<path d="M1445 1921 c-6 -11 9 -23 19 -14 9 9 7 23 -3 23 -6 0 -12 -4 -16 -9z"/>
<path d="M1760 1980 c0 -5 5 -10 10 -10 6 0 10 5 10 10 0 6 -4 10 -10 10 -5 0
-10 -4 -10 -10z"/>
<path d="M2610 1710 c0 -5 5 -10 10 -10 6 0 10 5 10 10 0 6 -4 10 -10 10 -5 0
-10 -4 -10 -10z"/>
<path d="M3130 1771 c0 -5 6 -11 13 -14 8 -3 4 -11 -12 -25 -22 -20 -22 -22
-6 -38 14 -15 18 -15 26 -3 8 12 10 12 18 0 8 -12 12 -11 27 3 14 15 15 19 3
27 -12 8 -12 10 0 18 12 8 11 12 -3 27 -15 15 -19 15 -28 3 -7 -11 -11 -11
-15 -1 -5 14 -23 16 -23 3z m60 -20 c0 -5 -6 -12 -12 -14 -10 -4 -9 -8 2 -16
8 -5 11 -13 7 -18 -5 -4 -12 -1 -18 7 -8 13 -10 13 -18 0 -6 -8 -13 -11 -16
-8 -4 4 4 18 16 32 25 26 39 32 39 17z"/>
<path d="M2880 1730 c0 -5 5 -10 10 -10 6 0 10 5 10 10 0 6 -4 10 -10 10 -5 0
-10 -4 -10 -10z"/>
<path d="M3335 1650 c3 -5 11 -10 16 -10 6 0 7 5 4 10 -3 6 -11 10 -16 10 -6
0 -7 -4 -4 -10z"/>
<path d="M3005 1649 c-11 -17 1 -21 15 -4 8 9 8 15 2 15 -6 0 -14 -5 -17 -11z"/>
<path d="M930 2810 c0 -5 5 -10 11 -10 5 0 7 5 4 10 -3 6 -8 10 -11 10 -2 0
-4 -4 -4 -10z"/>
<path d="M1055 2810 c3 -5 8 -10 11 -10 2 0 4 5 4 10 0 6 -5 10 -11 10 -5 0
-7 -4 -4 -10z"/>
<path d="M1095 2810 c3 -5 8 -10 11 -10 2 0 4 5 4 10 0 6 -5 10 -11 10 -5 0
-7 -4 -4 -10z"/>
<path d="M2365 2790 c-16 -16 -25 -30 -19 -29 8 0 60 59 52 59 -3 0 -17 -13
-33 -30z"/>
<path d="M2600 2804 c8 -10 15 -20 16 -22 1 -2 4 1 7 5 3 5 -4 15 -16 23 -21
12 -21 12 -7 -6z"/>
<path d="M2685 2800 c10 -11 20 -18 23 -16 5 6 -23 36 -34 36 -4 0 1 -9 11
-20z"/>
<path d="M1030 2790 c0 -5 5 -10 10 -10 6 0 10 5 10 10 0 6 -4 10 -10 10 -5 0
-10 -4 -10 -10z"/>
<path d="M1075 2790 c-3 -5 -1 -10 4 -10 6 0 11 5 11 10 0 6 -2 10 -4 10 -3 0
-8 -4 -11 -10z"/>
<path d="M1160 2792 c0 -5 7 -15 15 -22 8 -7 15 -9 15 -6 0 4 -7 14 -15 22 -8
9 -15 11 -15 6z"/>
<path d="M1200 2789 c0 -5 5 -7 10 -4 6 3 10 8 10 11 0 2 -4 4 -10 4 -5 0 -10
-5 -10 -11z"/>
<path d="M1240 2790 c0 -5 5 -10 11 -10 5 0 7 5 4 10 -3 6 -8 10 -11 10 -2 0
-4 -4 -4 -10z"/>
<path d="M1280 2789 c0 -5 5 -7 10 -4 6 3 10 8 10 11 0 2 -4 4 -10 4 -5 0 -10
-5 -10 -11z"/>
<path d="M2084 2781 c20 -22 26 -25 26 -13 0 4 -10 13 -22 21 -23 14 -23 14
-4 -8z"/>
<path d="M2490 2792 c0 -5 7 -15 15 -22 8 -7 15 -9 15 -6 0 4 -7 14 -15 22 -8
9 -15 11 -15 6z"/>
<path d="M2735 2790 c-3 -5 -1 -10 4 -10 6 0 11 5 11 10 0 6 -2 10 -4 10 -3 0
-8 -4 -11 -10z"/>
<path d="M2180 2772 c0 -5 7 -15 15 -22 8 -7 15 -9 15 -6 0 4 -7 14 -15 22 -8
9 -15 11 -15 6z"/>
<path d="M2300 2770 c0 -5 5 -10 11 -10 5 0 7 5 4 10 -3 6 -8 10 -11 10 -2 0
-4 -4 -4 -10z"/>
<path d="M1314 2755 c8 -8 18 -15 22 -15 3 0 1 7 -6 15 -7 8 -17 15 -22 15 -5
0 -3 -7 6 -15z"/>
<path d="M2064 2755 c8 -8 18 -15 22 -15 3 0 1 7 -6 15 -7 8 -17 15 -22 15 -5
0 -3 -7 6 -15z"/>
<path d="M1240 2750 c0 -5 5 -10 11 -10 5 0 7 5 4 10 -3 6 -8 10 -11 10 -2 0
-4 -4 -4 -10z"/>
<path d="M2105 2740 c-10 -11 -15 -20 -11 -20 11 0 39 30 34 36 -3 2 -13 -5
-23 -16z"/>
<path d="M1880 2725 c-13 -14 -20 -25 -16 -25 4 0 18 11 32 25 14 14 21 25 16
25 -5 0 -19 -11 -32 -25z"/>
<path d="M1385 2730 c-3 -5 -1 -10 4 -10 6 0 11 5 11 10 0 6 -2 10 -4 10 -3 0
-8 -4 -11 -10z"/>
<path d="M1470 2730 c0 -5 5 -10 11 -10 5 0 7 5 4 10 -3 6 -8 10 -11 10 -2 0
-4 -4 -4 -10z"/>
<path d="M2050 2730 c0 -5 5 -10 11 -10 5 0 7 5 4 10 -3 6 -8 10 -11 10 -2 0
-4 -4 -4 -10z"/>
<path d="M1580 2715 c-7 -8 -9 -15 -6 -15 4 0 14 7 22 15 9 8 11 15 6 15 -5 0
-15 -7 -22 -15z"/>
<path d="M1830 2715 c-7 -8 -9 -15 -6 -15 4 0 14 7 22 15 9 8 11 15 6 15 -5 0
-15 -7 -22 -15z"/>
<path d="M1450 2710 c0 -5 5 -10 11 -10 5 0 7 5 4 10 -3 6 -8 10 -11 10 -2 0
-4 -4 -4 -10z"/>
<path d="M2955 2610 c10 -11 20 -18 23 -16 5 6 -23 36 -34 36 -4 0 1 -9 11
-20z"/>
<path d="M680 2599 c0 -5 5 -7 10 -4 6 3 10 8 10 11 0 2 -4 4 -10 4 -5 0 -10
-5 -10 -11z"/>
<path d="M1590 2600 c0 -5 5 -10 10 -10 6 0 10 5 10 10 0 6 -4 10 -10 10 -5 0
-10 -4 -10 -10z"/>
<path d="M2945 2580 c3 -5 8 -10 11 -10 2 0 4 5 4 10 0 6 -5 10 -11 10 -5 0
-7 -4 -4 -10z"/>
<path d="M3041 2513 c-12 -13 -12 -16 0 -24 12 -8 12 -10 -1 -18 -8 -6 -11
-13 -8 -17 4 -4 3 -15 -3 -25 -7 -15 -6 -19 6 -19 8 0 15 -4 15 -10 0 -5 5
-10 12 -10 9 0 9 3 1 11 -12 12 -6 49 9 49 6 0 8 6 5 14 -3 7 1 24 10 35 8 12
12 25 9 28 -3 4 -6 1 -6 -5 0 -14 -27 -16 -32 -3 -1 5 -9 2 -17 -6z"/>
<path d="M3130 2520 c0 -5 5 -10 11 -10 5 0 7 5 4 10 -3 6 -8 10 -11 10 -2 0
-4 -4 -4 -10z"/>
<path d="M595 2480 c-3 -5 -1 -10 4 -10 6 0 11 5 11 10 0 6 -2 10 -4 10 -3 0
-8 -4 -11 -10z"/>
<path d="M3255 2480 c-3 -5 -1 -10 4 -10 6 0 11 5 11 10 0 6 -2 10 -4 10 -3 0
-8 -4 -11 -10z"/>
<path d="M3340 2475 c0 -9 -4 -13 -10 -10 -5 3 -10 -1 -10 -10 0 -9 -4 -13
-10 -10 -5 3 -10 -1 -10 -9 0 -9 -3 -15 -7 -15 -20 3 -26 -2 -13 -11 12 -8 11
-10 -6 -10 -35 0 -47 -24 -24 -45 19 -17 20 -17 20 0 0 17 1 17 19 1 12 -11
21 -14 26 -7 6 11 -1 15 -20 12 -5 -1 -2 5 7 15 21 21 57 12 39 -10 -7 -9 -8
-17 -3 -20 33 -20 50 97 19 129 -15 15 -17 15 -17 0z m10 -55 c0 -5 -4 -10
-10 -10 -5 0 -10 5 -10 10 0 6 5 10 10 10 6 0 10 -4 10 -10z m-70 -34 c0 -2
-7 -9 -15 -16 -12 -10 -15 -10 -15 4 0 9 7 16 15 16 8 0 15 -2 15 -4z"/>
<path d="M2985 2460 c-3 -5 -1 -10 4 -10 6 0 11 5 11 10 0 6 -2 10 -4 10 -3 0
-8 -4 -11 -10z"/>
<path d="M3275 2460 c-3 -5 -1 -10 4 -10 6 0 11 5 11 10 0 6 -2 10 -4 10 -3 0
-8 -4 -11 -10z"/>
<path d="M3445 2460 c-3 -5 -1 -10 4 -10 6 0 11 5 11 10 0 6 -2 10 -4 10 -3 0
-8 -4 -11 -10z"/>
<path d="M2993 2416 c1 -11 9 -21 17 -23 10 -3 11 -2 4 4 -6 4 -14 15 -17 23
-5 11 -6 9 -4 -4z"/>
<path d="M3070 2420 c0 -5 5 -10 11 -10 5 0 7 5 4 10 -3 6 -8 10 -11 10 -2 0
-4 -4 -4 -10z"/>
<path d="M2950 2405 c7 -8 17 -15 22 -15 5 0 3 7 -6 15 -8 8 -18 15 -22 15 -3
0 -1 -7 6 -15z"/>
<path d="M2930 2385 c7 -8 20 -14 29 -14 13 1 13 2 -1 6 -10 2 -18 9 -18 14 0
5 -5 9 -11 9 -8 0 -8 -5 1 -15z"/>
<path d="M3778 2348 c-16 -49 -15 -79 2 -61 13 13 40 96 34 105 -11 17 -20 6
-36 -44z"/>
<path d="M3030 2374 c0 -8 5 -12 10 -9 6 4 8 11 5 16 -9 14 -15 11 -15 -7z"/>
<path d="M3005 2310 c27 -27 54 -50 60 -50 5 0 2 7 -8 14 -17 13 -16 15 9 35
15 12 24 24 21 28 -4 3 -15 -4 -26 -15 -24 -28 -28 -28 -61 8 -15 17 -32 30
-36 30 -5 0 14 -22 41 -50z"/>
<path d="M3360 2341 c0 -7 10 -22 22 -33 18 -15 20 -21 9 -28 -12 -7 -11 -11
2 -25 15 -15 19 -13 53 20 20 20 33 39 29 43 -3 3 -10 0 -15 -8 -7 -12 -13
-10 -30 10 -18 20 -23 22 -30 10 -8 -13 -12 -12 -24 5 -10 13 -15 15 -16 6z
m66 -36 c14 -13 14 -17 -1 -31 -9 -9 -19 -13 -23 -10 -3 4 0 12 8 17 11 8 12
12 3 16 -13 5 -18 23 -7 23 3 0 12 -7 20 -15z"/>
<path d="M535 2290 c3 -5 8 -10 11 -10 2 0 4 5 4 10 0 6 -5 10 -11 10 -5 0 -7
-4 -4 -10z"/>
<path d="M3640 2290 c0 -5 5 -10 11 -10 5 0 7 5 4 10 -3 6 -8 10 -11 10 -2 0
-4 -4 -4 -10z"/>
<path d="M515 2270 c3 -5 8 -10 11 -10 2 0 4 5 4 10 0 6 -5 10 -11 10 -5 0 -7
-4 -4 -10z"/>
<path d="M504 2235 c8 -8 18 -15 22 -15 3 0 1 7 -6 15 -7 8 -17 15 -22 15 -5
0 -3 -7 6 -15z"/>
<path d="M2920 2230 c0 -5 5 -10 10 -10 6 0 10 5 10 10 0 6 -4 10 -10 10 -5 0
-10 -4 -10 -10z"/>
<path d="M2952 2185 c-11 -13 -11 -19 1 -35 8 -11 17 -17 20 -13 4 3 1 13 -6
21 -9 12 -9 16 1 19 13 5 17 23 5 23 -5 -1 -14 -7 -21 -15z"/>
<path d="M3620 2059 c0 -5 5 -7 10 -4 6 3 10 8 10 11 0 2 -4 4 -10 4 -5 0 -10
-5 -10 -11z"/>
<path d="M3660 2059 c0 -5 5 -7 10 -4 6 3 10 8 10 11 0 2 -4 4 -10 4 -5 0 -10
-5 -10 -11z"/>
<path d="M3631 2033 c-7 -8 -11 -16 -8 -19 2 -2 10 2 17 11 17 20 9 27 -9 8z"/>
<path d="M3620 1980 c0 -5 5 -10 11 -10 5 0 7 5 4 10 -3 6 -8 10 -11 10 -2 0
-4 -4 -4 -10z"/>
<path d="M1530 1965 c0 -8 48 -55 55 -55 9 0 -38 59 -47 59 -5 1 -8 -1 -8 -4z"/>
<path d="M3600 1960 c0 -5 5 -10 11 -10 5 0 7 5 4 10 -3 6 -8 10 -11 10 -2 0
-4 -4 -4 -10z"/>
<path d="M3675 1949 c-4 -6 -5 -12 -2 -15 2 -3 7 2 10 11 7 17 1 20 -8 4z"/>
<path d="M3580 1940 c0 -5 5 -10 11 -10 5 0 7 5 4 10 -3 6 -8 10 -11 10 -2 0
-4 -4 -4 -10z"/>
<path d="M1655 1920 c-3 -5 -1 -10 4 -10 6 0 11 5 11 10 0 6 -2 10 -4 10 -3 0
-8 -4 -11 -10z"/>
<path d="M1701 1914 c0 -11 3 -14 6 -6 3 7 2 16 -1 19 -3 4 -6 -2 -5 -13z"/>
<path d="M1740 1926 c0 -4 7 -14 15 -22 8 -9 15 -11 15 -6 0 5 -7 15 -15 22
-8 7 -15 9 -15 6z"/>
<path d="M1865 1920 c-3 -5 -1 -10 4 -10 6 0 11 5 11 10 0 6 -2 10 -4 10 -3 0
-8 -4 -11 -10z"/>
<path d="M600 1900 c0 -5 5 -10 11 -10 5 0 7 5 4 10 -3 6 -8 10 -11 10 -2 0
-4 -4 -4 -10z"/>
<path d="M1675 1900 c-3 -5 -1 -10 4 -10 6 0 11 5 11 10 0 6 -2 10 -4 10 -3 0
-8 -4 -11 -10z"/>
<path d="M1564 1885 c8 -8 18 -15 22 -15 3 0 1 7 -6 15 -7 8 -17 15 -22 15 -5
0 -3 -7 6 -15z"/>
<path d="M2010 1889 c0 -5 5 -7 10 -4 6 3 10 8 10 11 0 2 -4 4 -10 4 -5 0 -10
-5 -10 -11z"/>
<path d="M575 1880 c-3 -5 -1 -10 4 -10 6 0 11 5 11 10 0 6 -2 10 -4 10 -3 0
-8 -4 -11 -10z"/>
<path d="M655 1881 c-3 -6 0 -11 9 -11 8 0 16 -6 19 -12 2 -7 7 -10 11 -7 3 3
-2 14 -13 23 -12 11 -21 14 -26 7z"/>
<path d="M700 1886 c0 -11 30 -39 36 -34 2 3 -5 13 -16 23 -11 10 -20 15 -20
11z"/>
<path d="M2560 1886 c0 -2 7 -9 15 -16 12 -10 15 -10 15 4 0 9 -7 16 -15 16
-8 0 -15 -2 -15 -4z"/>
<path d="M2610 1883 c1 -14 30 -47 36 -41 6 7 -17 48 -28 48 -5 0 -8 -3 -8 -7z"/>
<path d="M3555 1880 c-3 -5 1 -10 10 -10 9 0 13 5 10 10 -3 6 -8 10 -10 10 -2
0 -7 -4 -10 -10z"/>
<path d="M2030 1869 c0 -5 5 -7 10 -4 6 3 10 8 10 11 0 2 -4 4 -10 4 -5 0 -10
-5 -10 -11z"/>
<path d="M2556 1861 c-4 -7 -5 -15 -2 -18 9 -9 19 4 14 18 -4 11 -6 11 -12 0z"/>
<path d="M1560 1845 c7 -8 17 -15 22 -15 5 0 3 7 -6 15 -8 8 -18 15 -22 15 -3
0 -1 -7 6 -15z"/>
<path d="M2042 1845 c-7 -8 -9 -15 -4 -15 5 0 15 7 22 15 16 19 -1 19 -18 0z"/>
<path d="M2280 1839 c0 -6 -10 -20 -22 -30 -11 -11 -19 -21 -16 -24 2 -3 17 8
32 24 17 18 24 31 17 35 -6 4 -11 2 -11 -5z"/>
<path d="M790 1825 c7 -8 17 -15 22 -15 5 0 3 7 -6 15 -8 8 -18 15 -22 15 -3
0 -1 -7 6 -15z"/>
<path d="M945 1830 c4 -6 11 -8 16 -5 14 9 11 15 -7 15 -8 0 -12 -5 -9 -10z"/>
<path d="M1523 1825 c-18 -20 -16 -30 2 -15 9 7 19 10 22 6 4 -4 1 -11 -7 -16
-8 -5 -11 -12 -7 -16 4 -4 13 1 21 11 11 16 11 21 0 32 -15 16 -16 16 -31 -2z"/>
<path d="M1655 1830 c3 -5 8 -10 11 -10 2 0 4 5 4 10 0 6 -5 10 -11 10 -5 0
-7 -4 -4 -10z"/>
<path d="M2155 1830 c3 -5 8 -10 11 -10 2 0 4 5 4 10 0 6 -5 10 -11 10 -5 0
-7 -4 -4 -10z"/>
<path d="M850 1811 c0 -10 19 -25 25 -20 1 2 -3 10 -11 17 -8 7 -14 8 -14 3z"/>
<path d="M2215 1810 c3 -5 8 -10 11 -10 2 0 4 5 4 10 0 6 -5 10 -11 10 -5 0
-7 -4 -4 -10z"/>
<path d="M2380 1810 c0 -5 5 -10 10 -10 6 0 10 5 10 10 0 6 -4 10 -10 10 -5 0
-10 -4 -10 -10z"/>
<path d="M2420 1810 c0 -5 5 -10 10 -10 6 0 10 5 10 10 0 6 -4 10 -10 10 -5 0
-10 -4 -10 -10z"/>
<path d="M1021 1784 c-7 -8 -11 -17 -9 -20 3 -2 13 5 23 16 10 11 14 20 9 20
-5 -1 -15 -8 -23 -16z"/>
<path d="M1615 1790 c3 -5 8 -10 11 -10 2 0 4 5 4 10 0 6 -5 10 -11 10 -5 0
-7 -4 -4 -10z"/>
<path d="M2155 1790 c3 -5 8 -10 11 -10 2 0 4 5 4 10 0 6 -5 10 -11 10 -5 0
-7 -4 -4 -10z"/>
<path d="M2360 1788 c0 -4 -7 -8 -15 -8 -8 0 -15 -4 -15 -10 0 -5 -5 -10 -11
-10 -5 0 -7 5 -4 10 3 6 1 10 -5 10 -6 0 -9 -8 -6 -17 3 -10 1 -24 -3 -32 -8
-12 -12 -12 -25 -2 -20 17 -21 4 -1 -16 9 -8 13 -23 10 -32 -3 -10 4 -29 15
-44 15 -18 17 -27 8 -31 -7 -2 -4 -4 7 -4 38 2 56 -2 51 -11 -6 -10 62 -6 72
4 9 9 -14 40 -27 38 -6 -2 -11 2 -11 8 0 6 -6 9 -14 6 -30 -12 -48 60 -21 83
11 9 15 9 15 1 0 -6 5 -11 11 -11 6 0 9 7 6 14 -4 10 -1 13 9 9 19 -7 18 -13
-8 -40 -12 -13 -17 -23 -12 -23 5 0 16 9 24 20 8 11 21 20 29 20 10 0 5 -10
-14 -30 -35 -36 -25 -40 11 -4 26 25 26 26 8 47 l-19 21 29 -18 c25 -16 28
-16 23 -3 -3 9 -1 19 4 23 7 4 4 12 -8 23 -19 17 -113 25 -113 9z"/>
<path d="M970 1776 c0 -2 8 -10 18 -17 15 -13 16 -12 3 4 -13 16 -21 21 -21
13z"/>
<path d="M2280 1750 c0 -5 5 -10 11 -10 5 0 7 5 4 10 -3 6 -8 10 -11 10 -2 0
-4 -4 -4 -10z"/>
<path d="M1055 1730 c3 -5 8 -10 11 -10 2 0 4 5 4 10 0 6 -5 10 -11 10 -5 0
-7 -4 -4 -10z"/>
<path d="M1125 1720 c-10 -11 -15 -20 -11 -20 11 0 39 30 34 36 -3 2 -13 -5
-23 -16z"/>
<path d="M2360 1710 c0 -5 5 -10 10 -10 6 0 10 5 10 10 0 6 -4 10 -10 10 -5 0
-10 -4 -10 -10z"/>
<path d="M2446 1671 c-17 -18 -24 -31 -17 -35 6 -4 11 -2 11 5 0 6 10 20 22
30 11 11 19 21 16 24 -2 3 -17 -8 -32 -24z"/>
<path d="M2360 1670 c0 -5 5 -10 11 -10 5 0 7 5 4 10 -3 6 -8 10 -11 10 -2 0
-4 -4 -4 -10z"/>
<path d="M3480 1670 c0 -5 5 -10 11 -10 5 0 7 5 4 10 -3 6 -8 10 -11 10 -2 0
-4 -4 -4 -10z"/>
<path d="M1198 1663 c7 -3 16 -2 19 1 4 3 -2 6 -13 5 -11 0 -14 -3 -6 -6z"/>
<path d="M2604 1635 c8 -8 18 -15 22 -15 3 0 1 7 -6 15 -7 8 -17 15 -22 15 -5
0 -3 -7 6 -15z"/>
<path d="M1365 1631 c-3 -5 -1 -12 5 -16 5 -3 10 1 10 9 0 18 -6 21 -15 7z"/>
<path d="M1391 1604 c0 -11 3 -14 6 -6 3 7 2 16 -1 19 -3 4 -6 -2 -5 -13z"/>
<path d="M1470 1604 c0 -8 5 -12 10 -9 6 4 8 11 5 16 -9 14 -15 11 -15 -7z"/>
<path d="M2840 1607 c0 -10 -4 -17 -10 -17 -5 0 -10 -5 -10 -12 0 -6 8 -4 19
6 18 17 19 17 23 -1 2 -11 6 -14 10 -7 4 6 -1 19 -12 29 -18 16 -20 16 -20 2z"/>
<path d="M1490 1579 c0 -5 5 -7 10 -4 6 3 10 8 10 11 0 2 -4 4 -10 4 -5 0 -10
-5 -10 -11z"/>
<path d="M1510 1559 c0 -5 5 -7 10 -4 6 3 10 8 10 11 0 2 -4 4 -10 4 -5 0 -10
-5 -10 -11z"/>
<path d="M1595 1560 c3 -5 8 -10 11 -10 2 0 4 5 4 10 0 6 -5 10 -11 10 -5 0
-7 -4 -4 -10z"/>
<path d="M3361 1544 c-12 -14 -21 -27 -19 -30 3 -2 17 10 33 26 16 17 25 30
19 29 -5 0 -20 -11 -33 -25z"/>
<path d="M1530 1539 c0 -5 5 -7 10 -4 6 3 10 8 10 11 0 2 -4 4 -10 4 -5 0 -10
-5 -10 -11z"/>
<path d="M2320 1546 c0 -2 -11 -29 -25 -60 -23 -51 -23 -56 -7 -56 12 0 24 15
34 43 l17 42 -2 -44 c-3 -57 14 -62 48 -14 22 31 26 33 21 13 -14 -53 -14 -59
-1 -64 8 -3 16 5 19 19 3 13 11 37 18 52 16 39 22 83 9 63 -8 -12 -13 -12 -23
-2 -16 16 -29 16 -23 0 2 -7 -7 -26 -20 -43 l-24 -29 2 34 c1 19 7 38 12 42 6
4 -5 8 -22 8 -18 0 -33 -2 -33 -4z"/>
<path d="M2695 1540 c3 -5 8 -10 11 -10 2 0 4 5 4 10 0 6 -5 10 -11 10 -5 0
-7 -4 -4 -10z"/>
<path d="M3405 1540 c3 -5 8 -10 11 -10 2 0 4 5 4 10 0 6 -5 10 -11 10 -5 0
-7 -4 -4 -10z"/>
<path d="M2501 1517 c-6 -6 -11 -17 -11 -25 0 -7 -5 -10 -11 -6 -7 4 -10 1 -7
-7 3 -8 -1 -29 -8 -46 -7 -18 -12 -33 -11 -34 1 0 24 -3 51 -6 37 -4 47 -2 44
8 -2 7 -12 13 -22 15 -23 3 -30 10 -22 23 5 7 15 7 31 1 20 -8 25 -6 25 6 0 9
-9 18 -20 21 -31 8 -23 26 10 21 39 -6 50 19 12 28 -15 3 -32 7 -38 9 -6 2
-17 -2 -23 -8z"/>
<path d="M2675 1520 c3 -5 8 -10 11 -10 2 0 4 5 4 10 0 6 -5 10 -11 10 -5 0
-7 -4 -4 -10z"/>
<path d="M3380 1519 c0 -5 5 -7 10 -4 6 3 10 8 10 11 0 2 -4 4 -10 4 -5 0 -10
-5 -10 -11z"/>
<path d="M2616 1496 c2 -6 -7 -33 -20 -61 -16 -33 -20 -52 -13 -57 12 -7 36
19 37 40 0 6 5 12 11 12 7 0 8 -11 4 -30 -5 -24 -3 -30 10 -30 19 0 47 25 38
34 -4 3 1 6 10 6 13 0 15 -5 7 -25 -5 -14 -8 -25 -7 -26 24 -8 33 -3 35 19 1
14 5 28 10 31 4 3 9 17 10 31 2 14 8 27 13 28 19 7 8 18 -17 17 -17 -1 -37
-14 -55 -36 l-29 -34 6 45 c6 44 6 45 -24 46 -18 1 -29 -3 -26 -10z m95 -69
c-10 -9 -11 -8 -5 6 3 10 9 15 12 12 3 -3 0 -11 -7 -18z"/>
<path d="M2945 1500 c-3 -5 -1 -10 4 -10 6 0 11 5 11 10 0 6 -2 10 -4 10 -3 0
-8 -4 -11 -10z"/>
<path d="M3400 1499 c0 -5 5 -7 10 -4 6 3 10 8 10 11 0 2 -4 4 -10 4 -5 0 -10
-5 -10 -11z"/>
<path d="M3210 1480 c0 -5 5 -10 10 -10 6 0 10 5 10 10 0 6 -4 10 -10 10 -5 0
-10 -4 -10 -10z"/>
<path d="M2784 1457 c3 -10 -1 -28 -8 -39 -13 -18 -13 -25 0 -49 14 -27 22
-31 59 -31 38 0 46 4 64 41 16 30 17 41 8 51 -9 10 -9 14 1 17 6 3 9 9 6 15
-4 6 -9 5 -14 -3 -6 -9 -12 -10 -22 -2 -7 6 -22 10 -33 10 -11 0 -26 -4 -33
-10 -10 -8 -16 -7 -24 4 -8 11 -9 10 -4 -4z m86 -38 c18 -32 -45 -81 -64 -51
-8 13 5 53 15 46 5 -3 6 2 3 10 -8 21 35 17 46 -5z"/>
<path d="M2960 1436 c-5 -5 -10 -16 -10 -23 0 -7 -5 -13 -11 -13 -5 0 -7 -4
-4 -10 3 -5 1 -19 -5 -31 -16 -28 -5 -56 15 -39 8 6 13 16 12 20 -2 8 3 10 23
10 6 0 10 -11 10 -25 0 -18 4 -23 16 -18 11 4 15 15 12 34 -3 20 0 29 9 29 7
0 13 7 13 16 0 9 5 12 13 8 12 -8 -6 19 -28 41 -13 13 -52 14 -65 1z m50 -41
c0 -8 -7 -15 -15 -15 -8 0 -15 7 -15 15 0 8 7 15 15 15 8 0 15 -7 15 -15z"/>
<path d="M3090 1440 c0 -5 5 -10 11 -10 5 0 7 5 4 10 -3 6 -8 10 -11 10 -2 0
-4 -4 -4 -10z"/>
<path d="M3130 1440 c0 -5 5 -10 11 -10 5 0 7 5 4 10 -3 6 -8 10 -11 10 -2 0
-4 -4 -4 -10z"/>
<path d="M3175 1440 c-3 -5 -1 -10 4 -10 6 0 11 5 11 10 0 6 -2 10 -4 10 -3 0
-8 -4 -11 -10z"/>
<path d="M3215 1440 c-3 -5 -1 -10 4 -10 6 0 11 5 11 10 0 6 -2 10 -4 10 -3 0
-8 -4 -11 -10z"/>
<path d="M3255 1440 c-3 -5 -1 -10 4 -10 6 0 11 5 11 10 0 6 -2 10 -4 10 -3 0
-8 -4 -11 -10z"/>
<path d="M3079 1386 c-7 -19 -15 -33 -18 -31 -3 1 -6 -10 -7 -25 -2 -46 24
-45 36 0 6 22 16 40 22 40 6 0 8 3 5 6 -3 4 -2 15 4 25 8 16 6 19 -10 19 -13
0 -24 -11 -32 -34z"/>
<path d="M3301 1395 c0 -11 -10 -45 -21 -74 -11 -30 -18 -57 -15 -59 9 -9 70
-7 73 3 1 6 -2 11 -8 11 -5 1 -15 2 -21 3 -10 1 -3 41 10 51 10 8 11 50 2 50
-5 0 -12 8 -14 18 -4 14 -5 14 -6 -3z"/>
<path d="M3180 1390 c0 -5 -8 -10 -17 -11 -11 0 -13 -3 -5 -6 8 -3 3 -16 -18
-43 -32 -40 -25 -67 9 -36 25 22 51 20 51 -4 0 -11 7 -20 15 -20 11 0 15 11
15 43 0 24 6 49 13 56 10 11 10 13 0 7 -8 -4 -13 -1 -13 8 0 10 -9 16 -25 16
-14 0 -25 -4 -25 -10z m23 -40 c-5 -19 -23 -29 -23 -12 0 7 20 32 26 32 1 0 0
-9 -3 -20z"/>
<path d="M2282 1344 c-15 -32 -16 -31 9 -37 30 -8 18 -32 -15 -30 -17 1 -26
-3 -26 -13 0 -18 61 -19 78 -2 17 17 15 47 -3 54 -22 9 -18 27 5 21 11 -3 23
-1 26 5 8 13 4 16 -32 22 -26 5 -33 2 -42 -20z"/>
<path d="M2374 1317 c-9 -29 -19 -58 -22 -64 -6 -19 19 -16 34 5 12 16 13 15
14 -5 0 -16 6 -23 20 -23 17 0 18 4 10 25 -7 20 -5 27 11 39 14 9 17 16 9 21
-6 4 -20 -1 -31 -11 -22 -20 -22 -19 -10 23 7 24 6 33 -4 37 -9 3 -19 -12 -31
-47z"/>
<path d="M2525 1293 c-23 -55 -29 -83 -16 -83 6 0 17 12 25 28 15 29 16 29 32
-25 7 -24 24 -13 24 14 0 14 7 35 17 45 15 17 15 19 -2 38 -30 33 -62 26 -80
-17z m62 -6 c-2 -6 -11 -11 -20 -13 -19 -3 -19 -2 -11 20 6 16 37 10 31 -7z"/>
<path d="M2621 1243 c-12 -42 -8 -48 36 -56 29 -6 32 -3 47 34 19 48 19 49 2
49 -7 0 -19 -13 -26 -30 -16 -38 -44 -42 -30 -4 6 14 8 30 4 35 -11 18 -23 8
-33 -28z"/>
<path d="M2869 1242 c-48 -68 -61 -92 -51 -92 6 0 25 21 44 48 47 64 49 70 41
75 -5 3 -20 -11 -34 -31z"/>
<path d="M2727 1223 c-19 -48 0 -68 22 -23 8 17 21 30 28 30 16 0 16 -5 2 -32
-7 -13 -8 -23 -1 -30 11 -11 30 17 37 52 4 23 -5 30 -44 36 -25 4 -30 0 -44
-33z"/>
<path d="M2920 1238 c-1 -13 -3 -40 -6 -60 -5 -32 -3 -38 13 -38 11 0 28 15
41 38 l22 37 -6 -42 c-5 -39 -4 -43 15 -43 12 0 21 4 21 9 0 4 14 25 30 46 33
41 37 55 17 55 -11 0 -31 -24 -50 -60 -4 -8 -5 4 -2 28 4 36 3 42 -13 42 -10
0 -28 -16 -41 -37 l-22 -38 6 43 c6 34 4 42 -9 42 -10 0 -16 -9 -16 -22z"/>
<path d="M3200 1227 c0 -2 -11 -31 -25 -66 -21 -53 -22 -62 -8 -59 10 2 26 27
39 60 18 46 19 58 8 62 -8 3 -14 4 -14 3z"/>
<path d="M3223 1150 c-17 -47 -19 -60 -8 -60 8 0 19 8 24 18 10 15 11 15 17
-5 10 -36 37 -30 29 6 -5 22 -2 30 11 35 13 5 15 9 6 18 -9 9 -15 9 -24 0 -22
-22 -29 -12 -13 18 14 28 14 30 -2 30 -13 0 -24 -17 -40 -60z"/>
<path d="M3079 1187 c-23 -17 -32 -52 -17 -64 7 -6 27 -11 44 -11 27 -1 32 4
42 36 6 20 10 38 8 40 -11 10 -63 10 -77 -1z m45 -16 c3 -4 -3 -16 -13 -25
-24 -21 -38 -4 -15 18 18 18 21 19 28 7z"/>
</g>
</svg>
